# xmcd
#
# Track frame offsets:
#	150
#	11154
#	26828
#	39449
#	50807
#	64298
#	77889
#	91095
#	103233
#	114226
#	127812
#	142227
#	157282
#	166977
#	178489
#	197492
#	208387
#	221807
#	243397
#	253037
#	266983
#	280615
#
# Disc length: 3963 seconds
#
# Revision: 0
# Processed by: cddbd v1.5.2PL0 Copyright (c) Steve Scherf et al.
# Submitted via: EasyCDDAExtractor 9.1.3.1
#
DISCID=5a0f7916
DTITLE=Waylon Jennings - The Essential Waylon Jennings [CD2]
DYEAR=2007
DGENRE=Country
TTITLE0=This Time
TTITLE1=It's Not Supposed to be That Way
TTITLE2=I'm A Ramblin' Man
TTITLE3=Rainy Day Woman
TTITLE4=Amanda
TTITLE5=Bob Wills is Still the King
TTITLE6=Are You Sure Hank Done it This Way
TTITLE7=Waymore's Blues
TTITLE8=Dreaming my Dreams With You
TTITLE9=Good Hearted Woman
TTITLE10=Are You Ready for the Country
TTITLE11=Luckenbach, Texas (Back to the Basics of Love)
TTITLE12=The Wurlitzer Prize (I Don't Want to Get Over You)
TTITLE13=Mamas Don't Let Your Babies Grow UP to be Cowboys
TTITLE14=I've Always Been Crazy
TTITLE15=A Long Time Ago
TTITLE16=Don't You Think This Outlaw Bit's Done Got Out of Hand
TTITLE17=I Ain't Living Long Like This
TTITLE18=Theme From the Dukes of Hazzard (Good Ol' Boys)
TTITLE19=Storms Never Last
TTITLE20=Drinkin' and Dreamin'
TTITLE21=Rose in Paradise
EXTD=
EXTT0=
EXTT1=
EXTT2=
EXTT3=
EXTT4=
EXTT5=
EXTT6=
EXTT7=
EXTT8=
EXTT9=
EXTT10=
EXTT11=
EXTT12=
EXTT13=
EXTT14=
EXTT15=
EXTT16=
EXTT17=
EXTT18=
EXTT19=
EXTT20=
EXTT21=
PLAYORDER=
